<?xml version="1.0" standalone="no"?>
<!DOCTYPE svg PUBLIC "-//W3C//DTD SVG 20010904//EN"
 "http://www.w3.org/TR/2001/REC-SVG-20010904/DTD/svg10.dtd">
<svg version="1.0" xmlns="http://www.w3.org/2000/svg"
 width="32.000000pt" height="32.000000pt" viewBox="0 0 32.000000 32.000000"
 preserveAspectRatio="xMidYMid meet">

<g transform="translate(0.000000,32.000000) scale(0.100000,-0.100000)"
fill="#000000" stroke="none">
<path d="M114 189 c-3 -6 -1 -16 5 -22 14 -14 14 -50 1 -63 -8 -8 -6 -15 4
-23 10 -8 16 -9 21 -1 4 6 2 9 -3 8 -11 -3 -16 11 -5 15 4 1 18 13 30 25 17
17 22 30 17 45 -6 20 -5 21 11 7 16 -13 18 -13 13 0 -2 8 -13 17 -23 18 -14 3
-17 -1 -13 -22 7 -36 -27 -57 -36 -23 -6 25 -4 33 7 29 5 -1 6 2 2 8 -8 13
-22 13 -31 -1z"/>
</g>
</svg>
